<?xml version="1.0" encoding="UTF-8"?>
<svg xmlns="http://www.w3.org/2000/svg" xmlns:xlink="http://www.w3.org/1999/xlink" width="375pt" height="374.999991pt" viewBox="0 0 375 374.999991" version="1.2">
<g id="surface1">
<path style=" stroke:none;fill-rule:nonzero;fill:rgb(0%,18.818665%,72.549438%);fill-opacity:1;" d="M 257.910156 97.378906 C 257.910156 86.382812 249.03125 77.355469 237.898438 77.355469 L 137.472656 77.355469 L 137.472656 77.5 C 126.761719 77.921875 118.304688 86.664062 118.304688 97.378906 C 118.304688 108.09375 126.902344 116.835938 137.472656 117.257812 L 137.472656 117.398438 L 237.898438 117.398438 C 248.890625 117.398438 257.910156 108.375 257.910156 97.378906 Z M 257.910156 97.378906 "/>
<path style=" stroke:none;fill-rule:nonzero;fill:rgb(0%,18.818665%,72.549438%);fill-opacity:1;" d="M 257.910156 277.667969 C 257.910156 266.667969 249.03125 257.644531 237.898438 257.644531 L 137.472656 257.644531 L 137.472656 257.789062 C 126.761719 258.210938 118.304688 266.953125 118.304688 277.667969 C 118.304688 288.382812 126.902344 297.125 137.472656 297.546875 L 137.472656 297.6875 L 237.898438 297.6875 C 248.890625 297.6875 257.910156 288.664062 257.910156 277.667969 Z M 257.910156 277.667969 "/>
<path style=" stroke:none;fill-rule:nonzero;fill:rgb(0%,18.818665%,72.549438%);fill-opacity:1;" d="M 299.285156 232.597656 C 299.285156 221.597656 290.40625 212.574219 279.273438 212.574219 L 208.644531 212.574219 L 208.644531 212.714844 C 197.933594 213.136719 189.476562 221.882812 189.476562 232.597656 C 189.476562 243.316406 198.074219 252.058594 208.644531 252.480469 L 208.644531 252.621094 L 279.273438 252.621094 C 290.265625 252.621094 299.285156 243.597656 299.285156 232.597656 Z M 299.285156 232.597656 "/>
<path style=" stroke:none;fill-rule:nonzero;fill:rgb(0%,18.818665%,72.549438%);fill-opacity:1;" d="M 186.71875 142.453125 C 186.71875 131.453125 177.84375 122.429688 166.707031 122.429688 L 96.078125 122.429688 L 96.078125 122.570312 C 85.367188 122.992188 76.914062 131.738281 76.914062 142.453125 C 76.914062 153.171875 85.507812 161.914062 96.078125 162.335938 L 96.078125 162.476562 L 166.707031 162.476562 C 177.703125 162.476562 186.71875 153.453125 186.71875 142.453125 Z M 186.71875 142.453125 "/>
<path style=" stroke:none;fill-rule:nonzero;fill:rgb(0%,18.818665%,72.549438%);fill-opacity:1;" d="M 257.910156 187.523438 C 257.910156 176.523438 249.03125 167.5 237.898438 167.5 L 137.472656 167.5 L 137.472656 167.644531 C 126.761719 168.066406 118.304688 176.808594 118.304688 187.523438 C 118.304688 198.238281 126.902344 206.980469 137.472656 207.402344 L 137.472656 207.542969 L 237.898438 207.542969 C 248.890625 207.542969 257.910156 198.519531 257.910156 187.523438 Z M 257.910156 187.523438 "/>
</g>
</svg>
